<svg xmlns="http://www.w3.org/2000/svg" xmlns:xlink="http://www.w3.org/1999/xlink" version="1.1" x="0px" y="0px" viewBox="0 0 100 125" enable-background="new 0 0 100 100" xml:space="preserve"><path fill-rule="evenodd" clip-rule="evenodd" d="M90.016,43.571c3.551,0,5.51,2.877,5.51,6.429c0,3.553-1.959,6.429-5.51,6.429  V43.571z"/><path d="M82.669,34.388c2.026,0,3.673,1.648,3.673,3.673v23.878c0,2.027-1.647,3.673-3.673,3.673H11.036  c-2.026,0-3.673-1.646-3.673-3.673V38.061c0-2.025,1.647-3.673,3.673-3.673H82.669 M82.669,32.551H11.036  c-3.041,0-5.51,2.47-5.51,5.51v23.878c0,3.042,2.469,5.51,5.51,5.51h71.633c3.041,0,5.51-2.468,5.51-5.51V38.061  C88.179,35.021,85.71,32.551,82.669,32.551"/><path fill-rule="evenodd" clip-rule="evenodd" d="M12.873,36.225h67.959c2.029,0,3.673,1.645,3.673,3.673v20.204  c0,2.03-1.644,3.673-3.673,3.673H12.873c-2.03,0-3.674-1.643-3.674-3.673V39.898C9.199,37.869,10.843,36.225,12.873,36.225"/></svg>