<svg xmlns="http://www.w3.org/2000/svg" xmlns:xlink="http://www.w3.org/1999/xlink" version="1.1" x="0px" y="0px" viewBox="0 0 29 36.25" style="enable-background:new 0 0 29 29;" xml:space="preserve"><style type="text/css">
	.st0{fill:none;stroke:#000000;stroke-width:2;stroke-miterlimit:10;}
	.st1{fill:none;stroke:#000000;stroke-width:2;stroke-linecap:round;stroke-linejoin:round;stroke-miterlimit:10;}
	.st2{fill:none;stroke:#000000;stroke-miterlimit:10;}
	.st3{fill:none;stroke:#000000;stroke-width:2;stroke-miterlimit:10;stroke-dasharray:1.7411,1.7411;}
	.st4{fill:none;stroke:#000000;stroke-width:2;stroke-linecap:round;stroke-linejoin:round;stroke-dasharray:2.0261,4.0522;}
</style><g><path d="M7.5,15.5v7c0,0.552-0.448,1-1,1h-2c-0.552,0-1-0.448-1-1v-7c0-0.552,0.448-1,1-1h2C7.052,14.5,7.5,14.948,7.5,15.5z"/><path d="M13.5,13.5v9c0,0.552-0.448,1-1,1h-2c-0.552,0-1-0.448-1-1v-9c0-0.552,0.448-1,1-1h2C13.052,12.5,13.5,12.948,13.5,13.5z"/><path d="M19.5,10.5v12c0,0.552-0.448,1-1,1h-2c-0.552,0-1-0.448-1-1v-12c0-0.552,0.448-1,1-1h2C19.052,9.5,19.5,9.948,19.5,10.5z"/><path d="M25.5,6.5v16c0,0.552-0.448,1-1,1h-2c-0.552,0-1-0.448-1-1v-16c0-0.552,0.448-1,1-1h2C25.052,5.5,25.5,5.948,25.5,6.5z"/></g></svg>